<svg width="320" height="240" xmlns="http://www.w3.org/2000/svg">
 <!-- Created with SVG-edit - http://svg-edit.googlecode.com/ -->
 <g>
  <title>Layer 1</title>
  <rect stroke="#000000" id="svg_7" height="78.000003" width="179" y="160" x="201" stroke-linecap="null" stroke-linejoin="null" stroke-dasharray="null" stroke-width="5" fill="#000000"/>
  <path d="m205,228c0,0 0,-1 0,-3c0,-1 0,-2 0,-3c0,-1 0,-3 0,-5c0,-2 0,-3 0,-5c0,-2 0,-3 0,-4c0,-1 0,-2 0,-3c0,-1 0,-2 0,-3c0,-1 0,-3 0,-4c0,-1 0,-2 0,-3c0,-1 0,-2 0,-3c0,-1 0,-2 0,-3c0,-1 0,-2 0,-3c0,-1 0,-2 0,-3c0,-1 0,-2 0,-3c0,-1 0,-2 0,-3c0,-1 0,-2 0,-3c0,-1 0,-2 0,-3c0,-1 0.292892,-1.292892 1,-2c0.707108,-0.707108 0,-2 1,-2c1,0 2,0 3,0c1,0 2,0 3,0c1,0 2,0 3,0c1,0 2,0 3,0c1,0 2.076126,-0.38269 3,0c1.306564,0.541199 1.693436,1.458801 3,2c1.847763,0.765366 4,1 5,1c1,0 0.693436,1.458801 2,2c0.923874,0.38269 2.076126,0.61731 3,1c1.306564,0.541199 1.292892,1.292892 2,2c0.707108,0.707108 1.458801,0.693436 2,2c0.38269,0.923874 0.61731,1.076126 1,2c0.541199,1.306564 1,2 1,3c0,1 1,2 1,3c0,1 0,2 0,3c0,1 -0.292892,1.292892 -1,2c-0.707108,0.707108 -1,1 -1,2c0,1 -1.292892,0.292892 -2,1c-0.707108,0.707108 -1,1 -1,2c0,1 -1.076126,0.61731 -2,1c-1.306564,0.541199 -1.292892,1.292892 -2,2c-0.707108,0.707108 -1.693436,0.458801 -3,1c-0.923874,0.38269 0,0 1,0c1,0 2,0 3,0c1,0 2.076126,-0.38269 3,0c1.306564,0.541199 2,1 3,1c1,0 2.458801,-0.306564 3,1c0.38269,0.923874 1,1 1,2c0,1 1,1 1,2c0,1 1,2 1,3c0,1 0,2 0,3c0,1 0,2 0,3c0,1 -0.458801,1.693436 -1,3c-0.38269,0.923874 -1.292892,0.292892 -2,1c-0.707108,0.707108 -1.292892,0.292892 -2,1c-0.707108,0.707108 -1,2 -2,2c-1,0 -1,1 -2,1c-1,0 -1.292892,0.292892 -2,1c-0.707108,0.707108 -1.292892,0.292892 -2,1c-0.707108,0.707108 -2,0 -3,0c-1,0 -2,1 -3,1c-1,0 -2,0 -3,0c-1,0 -2,1 -3,1c-1,0 -2,0 -3,0c-1,0 -2,0 -3,0c-1,0 -2,0 -3,0c-1,0 -1,1 -2,1c-1,0 -2,0 -3,0c-1,0 -0.306564,-0.458801 1,-1c0.923874,-0.38269 3,0 4,0c1,0 2,-1 3,-1c2,0 2.823746,-0.486252 5,-1c0.973251,-0.229752 3,-1 4,-1c2,0 3.292892,0.707108 4,0c0.707108,-0.707108 1,-1 2,-1c1,0 2,0 3,0c1,0 2,0 3,0c1,0 2,-1 3,-1c1,0 1.292892,-0.292892 2,-1c0.707108,-0.707108 3,0 4,0c1,0 2.292892,0.707108 3,0c0.707108,-0.707108 1,-1 2,-1c1,0 2,0 3,-1c1,-1 2.292892,-0.292892 3,-1c0.707092,-0.707108 1.076111,-0.61731 2,-1c1.306549,-0.541199 1.693451,-1.458801 3,-2c0.923889,-0.38269 2,-1 3,-1c1,0 1.292908,-0.292892 2,-1c0.707092,-0.707108 0.292908,-1.292892 1,-2c0.707092,-0.707108 1.693451,-0.458801 3,-1c0.923889,-0.38269 1.076111,-0.61731 2,-1c1.306549,-0.541199 1.076111,-1.61731 2,-2c1.306549,-0.541199 1.292908,-1.292892 2,-2c0.707092,-0.707108 1.292908,-1.292892 2,-2c0.707092,-0.707108 1.292908,-0.292892 2,-1c0.707092,-0.707108 0.61731,-1.076126 1,-2c0.541199,-1.306564 2.458801,-0.693436 3,-2c0.38269,-0.923874 0.292908,-1.292892 1,-2c0.707092,-0.707108 1.292908,-1.707108 2,-1c0.707092,0.707108 0,2 0,3c0,1 0,2 0,3c0,1 0,2 0,3c0,1 0,2 0,3c0,1 0,2 0,3c0,1 0,2 0,3c0,1 0,2 0,3c0,1 0,2 0,3c0,1 0.38269,2.076126 0,3c-0.541199,1.306564 -1.292908,2.292892 -2,3c-0.707092,0.707108 -2,1 -3,1c-1,0 -1.076111,0.61731 -2,1c-1.306549,0.541199 -2.076111,0.61731 -3,1c-1.306549,0.541199 -2.292908,0.292892 -3,1c-0.707092,0.707108 -1,1 -2,1c-1,0 -2,0 -3,0c-1,0 -2,0 -3,0c-1,0 -1,-1 -1,-2c0,-1 0,-2 0,-3c0,-1 0.292908,-1.292892 1,-2c0.707092,-0.707108 0.292908,-1.292892 1,-2c0.707092,-0.707108 2.076111,-0.61731 3,-1c1.306549,-0.541199 2,-1 3,-2c1,-1 2,-1 3,-1c1,0 1,-1 2,-1c1,0 2,0 3,0c1,0 2,0 3,0c1,0 2,0 3,0c1,0 2,-1 3,-1c1,0 2,-1 3,-1c1,0 2,0 4,0c1,0 2.076111,0.38269 3,0c1.306549,-0.541199 2,-1 3,-1c2,0 3,0 4,0c1,0 2,0 3,0c1,0 2,0 3,0c1,0 2,-1 3,-1c1,0 2,0 3,0c1,0 0.292908,-1.292892 1,-2c0.707092,-0.707108 1.292908,-0.292892 2,-1c0.707092,-0.707108 -0.38269,-2.076126 0,-3c0.541199,-1.306564 1,-2 1,-3c0,-1 0,-2 0,-3c0,-1 -1,-1 -1,-2c0,-1 -0.292908,-1.292892 -1,-2c-0.707092,-0.707108 -2.076111,-0.61731 -3,-1c-1.306549,-0.541199 -2.292908,-0.292892 -3,-1c-0.707092,-0.707108 -1.292908,-0.292892 -2,-1c-0.707092,-0.707108 -1,-1 -2,-1c-1,0 -2,0 -3,0c-1,0 -2,0 -3,0c-1,0 -2,0 -3,0c-1,0 -1.292908,0.292892 -2,1c-0.707092,0.707108 -1,2 -1,3c0,1 0,2 0,3c0,1 0,2 0,3c0,1 0,2 0,3c0,1 0,2 0,3c0,1 0,2 0,3c0,1 0.292908,1.292892 1,2c0.707092,0.707108 0.076111,1.61731 1,2c1.306549,0.541199 1,2 2,3c1,1 1.292908,1.292892 2,2c0.707092,0.707108 1.292908,0.292892 2,1c0.707092,0.707108 1,1 2,1c1,0 2.292908,-0.707108 3,0c0.707092,0.707108 1,1 2,1c1,0 2,0 3,0c1,0 2,0 3,0c1,0 2,0 3,0c1,0 2,0 3,0c1,0 2,0 3,0c1,0 1.292908,-0.292892 2,-1c0.707092,-0.707108 1.292908,-0.292892 2,-1c0.707092,-0.707108 0.292908,-1.292892 1,-2c0.707092,-0.707108 0.292908,-1.292892 1,-2c0.707092,-0.707108 1.292908,-0.292892 2,-1c0.707092,-0.707108 0.292908,-1.292892 1,-2c0.707092,-0.707108 1.458801,-1.693436 2,-3c0.38269,-0.923874 0.292908,-1.292892 1,-2c0.707092,-0.707108 0.458801,-1.693436 1,-3c0.38269,-0.923874 1.292908,-0.292892 2,-1c0.707092,-0.707108 0,-2 1,-2c1,0 1,-1 2,-1c1,0 1.292908,-0.292892 2,-1c0.707092,-0.707108 2.292908,0.707108 3,0c0.707092,-0.707108 1,-1 2,-1c1,0 2.076111,-0.38269 3,0c1.306549,0.541199 2.292908,1.292892 3,2c0.707092,0.707108 0.292908,1.292892 1,2c0.707092,0.707108 1,1 2,1c1,0 1.292908,0.292892 2,1c0.707092,0.707108 1,1 1,2c0,1 1,1 1,2c0,1 0.707092,-0.292892 0,-1c-0.707092,-0.707108 -0.292908,-1.292892 -1,-2c-0.707092,-0.707108 -1.292908,-0.292892 -2,-1c-0.707092,-0.707108 -0.292908,-1.292892 -1,-2c-0.707092,-0.707108 -1.292908,-0.292892 -2,-1c-0.707092,-0.707108 -1.292908,-0.292892 -2,-1c-0.707092,-0.707108 -1.292908,-0.292892 -2,-1c-0.707092,-0.707108 -1.693451,-0.458801 -3,-1c-0.923889,-0.38269 -2,0 -3,0c-1,0 -2,0 -3,0c-1,0 -2.292908,-0.707108 -3,0c-0.707092,0.707108 -1.292908,0.292892 -2,1c-0.707092,0.707108 -0.292908,1.292892 -1,2c-0.707092,0.707108 0,2 0,3c0,1 -0.458801,1.693436 -1,3c-0.38269,0.923874 0,2 0,3c0,1 0,2 0,3c0,1 0,2 0,3c0,1 0,2 0,3c0,1 0.292908,1.292892 1,2c0.707092,0.707108 2,0 3,0c1,0 2,0 3,0c2,0 3,0 4,0c1,0 3,0 4,0c1,0 2.292908,0.707108 3,0c0.707092,-0.707108 0.292908,-1.292892 1,-2c0.707092,-0.707108 1.292908,-1.292892 2,-2c0.707092,-0.707108 0.292908,-1.292892 1,-2c0.707092,-0.707108 0.292908,-2.292892 1,-3c0.707092,-0.707108 -0.707092,-2.292892 0,-3c0.707092,-0.707108 0.61731,-1.076126 1,-2c0.541199,-1.306564 1,0 1,1c0,1 0,2 0,3c0,1 0,2 0,3c0,1 0,2 0,3c0,1 0.292908,1.292892 1,2c0.707092,0.707108 1,1 2,1c1,0 1.292908,0.292892 2,1c0.707092,0.707108 2,0 3,0c1,0 2,0 3,0l0,-1l1,-1l0,-1" id="svg_20" stroke-linecap="null" stroke-linejoin="null" stroke-dasharray="null" stroke-width="5" stroke="#4c4c4c" fill="none"/>
  <path d="m277,183c0,0 1.418854,-0.418854 3,-2c1.581146,-1.581146 3.228851,-2.729614 8,-7c4.215088,-3.772675 6,-7 7,-7l0,-1" id="svg_23" stroke-linecap="null" stroke-linejoin="null" stroke-dasharray="null" stroke-width="5" stroke="#4c4c4c" fill="none"/>
 </g>
</svg>