  <svg width="640" height="240" xmlns="http://www.w3.org/2000/svg">
 <!-- Created with SVG-edit - http://svg-edit.googlecode.com/ -->
 <g>
  <title>Layer 1</title>
  <ellipse ry="48" rx="46" id="svg_2" cy="179" cx="211" stroke-linecap="null" stroke-linejoin="null" stroke-dasharray="null" stroke-width="5" stroke="#ffff00" fill="#ffff00"/>
  <line id="svg_3" y2="168" x2="193" y1="155" x1="191" stroke-linecap="null" stroke-linejoin="null" stroke-dasharray="null" stroke-width="5" stroke="#ffff00" fill="none"/>
  <ellipse ry="7" rx="7" id="svg_11" cy="161" cx="191" stroke-linecap="null" stroke-linejoin="null" stroke-dasharray="null" stroke-width="5" stroke="#000000" fill="#000000"/>
  <ellipse ry="11" rx="11" id="svg_12" cy="159" cx="220" stroke-linecap="null" stroke-linejoin="null" stroke-dasharray="null" stroke-width="5" stroke="#000000" fill="#000000"/>
  <path d="m178,197c0,0 2,0 6,0c3,0 6.925797,0.497559 12,1c2.985397,0.295609 6.038742,-0.480545 9,0c3.121445,0.506546 5,1 8,1c2,0 5,0 7,0c1,0 2,0 3,0c1,0 2,0 4,0c1,0 2,0 3,0c2,0 4,0 5,0l1,0l1,0l1,0" id="svg_13" stroke-linecap="null" stroke-linejoin="null" stroke-dasharray="null" stroke-width="5" stroke="#000000" fill="none"/>
 </g>
</svg>